# xmcd CD database file
#
# Track frame offsets:
#	150
#	42664
#	90747
#	115509
#	143747
#	174582
#	194187
#	211451
#	229718
#	267398
#	298120
#	314594
#
# Disc length: 4437 seconds
#
# Revision: 1
# Processed by: cddbd v1.5.2PL0 Copyright (c) Steve Scherf et al.
# Submitted via: CDex 1.70beta2
#
DISCID=bd11530c
DTITLE=Various Artist - 休日ジャズ
DYEAR=2014
DGENRE=Jazz
TTITLE0=So What
TTITLE1=Blue Train
TTITLE2=Take Five
TTITLE3=Four On Six
TTITLE4=Joy Spring
TTITLE5=Moment’s Notice
TTITLE6=A Foggy Day
TTITLE7=Four
TTITLE8=Now’s The Time
TTITLE9=St．Thomas
TTITLE10=My Baby Just Cares For Me
TTITLE11=Lullaby of Birdland
EXTD=YEAR: 2014
EXTT0=
EXTT1=
EXTT2=
EXTT3=
EXTT4=
EXTT5=
EXTT6=
EXTT7=
EXTT8=
EXTT9=
EXTT10=
EXTT11=
PLAYORDER=
